PathFileType	4	(X/Y/Z)	Patient4_TMGait_0pt3_02_left_04.trc.trc
DataRate	CameraRate	NumFrames	NumMarkers	Units	OrigDataRate	OrigDataStartFrame	OrigNumFrames
48.780487804878	48.780487804878	4	33	mm	48.780487804878	124	       141
Frame#	Time	Sacral			L.Shoulder			Chest			R.Shoulder			Neck			R.ASIS			L.ASIS			R.Thigh.Superior			R.Thigh.Lateral			R.Thigh.Inferior			R.Patella			L.Thigh.Superior			L.Thigh.Lateral			L.Thigh.Inferior			L.Patella			L.Shank.Superior			L.Shank.Lateral			L.Shank.Inferior			R.Shank.Superior			R.Shank.Lateral			R.Shank.Inferior			R.Heel			R.Midfoot.Superior			R.Midfoot.Lateral			R.Toe			L.Heel			L.Midfoot.Lateral			L.Midfoot.Superior			L.Toe			L.Elbow			L.Wrist			R.Elbow			R.Wrist			
		X1	Y1	Z1	X2	Y2	Z2	X3	Y3	Z3	X4	Y4	Z4	X5	Y5	Z5	X6	Y6	Z6	X7	Y7	Z7	X8	Y8	Z8	X9	Y9	Z9	X10	Y10	Z10	X11	Y11	Z11	X12	Y12	Z12	X13	Y13	Z13	X14	Y14	Z14	X15	Y15	Z15	X16	Y16	Z16	X17	Y17	Z17	X18	Y18	Z18	X19	Y19	Z19	X20	Y20	Z20	X21	Y21	Z21	X22	Y22	Z22	X23	Y23	Z23	X24	Y24	Z24	X25	Y25	Z25	X26	Y26	Z26	X27	Y27	Z27	X28	Y28	Z28	X29	Y29	Z29	X30	Y30	Z30	X31	Y31	Z31	X32	Y32	Z32	X33	Y33	Z33	

124	9.741500000000	715.374154311788	1002.478137119122	591.304888939204	866.738098941458	1415.071622416225	360.645897489154	996.820692293745	1349.607109022310	502.807164077414	952.078599987775	1439.045125989577	682.362600852716	884.118126077017	1485.168625410215	513.784581069395	956.229891352468	931.150264971394	671.145060194326	903.320987319541	954.752483460180	401.577560461822	965.924765672685	721.364032036498	630.412998661142	877.586574009835	615.384946019552	692.086164420619	937.072076834619	560.668950530088	601.961138741563	924.724028305382	470.236607488630	604.180832229918	981.317484276408	766.427745562571	427.956651766315	920.331262199498	639.065616846726	356.083090992553	1020.036739722311	577.430569273484	418.541609468532	1041.630952901567	513.633364482908	417.950798561928	1026.929633649751	442.291015775275	404.308785234818	964.762387170870	313.741737987670	345.802778946018	1049.989676906405	213.520386100410	402.535519784630	879.399638340787	386.028570969068	609.725741746586	794.100643482757	291.952526750533	669.881748754784	815.481809797073	196.078408300252	600.676306749453	657.865998038205	43.433997376497	564.984925494869	828.701300456900	95.576434969307	606.023617635993	738.107349138309	36.929074260423	642.671401677012	946.548379652130	41.617020195910	640.521133840165	963.452787015233	37.146920444272	430.340521354625	1042.787686091255	41.547252647657	355.567068373617	1114.107900592830	115.511984499609	383.828754012793	1248.288126422913	82.375722881984	366.110140257101	715.046844253879	1091.717198626107	295.594387072599	675.925718197750	836.253308156731	340.068811275003	1126.973260193613	1159.043837908021	807.538489580239	1359.210338033017	1226.790628643887	727.257302322592	
125	9.762000000000	716.277802889754	1002.179858842811	589.128986258959	867.064656970247	1414.230521457355	357.377918520974	997.713864853012	1348.739629222823	499.078491989900	953.620399603804	1438.509542747234	678.550928379618	884.946427234553	1484.489386445329	510.400986962368	957.145132188001	930.272054747572	668.325823060412	903.371274436755	953.679473677819	398.940722540548	964.731917295816	720.057001987590	628.257670437611	875.165018074482	615.057027171364	690.504342634436	933.645088185931	559.503379438555	600.519209264976	920.082487870189	469.475380681003	602.910149582976	979.903599881204	763.845312069315	424.582396209167	916.133786011237	636.909947493945	354.154250846244	1015.934402516628	574.871074399210	415.846277495463	1035.993821523657	511.013588421241	415.799285994832	1021.983932357828	439.874231850715	402.353258961733	959.615796496700	311.004227072509	345.085427055258	1045.346518716268	211.285293065228	401.909074758017	874.570289267431	385.451558938980	608.733104554413	788.924761821841	291.935918732998	669.379093840656	809.857065767646	195.814707646486	600.338948112615	651.703757936915	43.316630256651	564.978531240543	822.573662032549	95.464051214615	605.811685955607	731.955498412471	36.819213698446	642.653410011962	940.429295205898	41.623635154028	640.496112358463	958.382555795923	36.531344611068	431.159369161896	1037.113641833840	40.062056368410	355.631675559976	1109.638647805416	112.657363560975	383.651721475071	1243.242505693247	77.553087904758	364.749293471704	716.102207334012	1090.515453951101	293.008943028130	676.674441746075	835.003126805379	337.486209909462	1134.759239991062	1163.292665003817	802.113349683751	1362.549435244707	1240.288752059460	718.042382498407	
126	9.782500000000	717.330343761758	1001.699359783573	586.727897429513	867.536439080768	1413.140241155000	353.821473040174	998.711074867072	1347.764892473035	495.147059293821	955.141379175419	1437.845986579317	674.532213368172	885.841371147274	1483.663672245949	506.702076371661	958.262780303541	929.312659691170	665.390902438407	903.718258106732	952.553457649105	396.162939057274	963.975589015735	718.691968408229	626.046722530067	873.196609646405	614.617016855420	688.758845741087	930.764176262123	558.272800962744	598.959640966448	916.010003579843	468.579364854377	601.496347446574	979.260304487515	761.691775676070	421.470112433844	913.376489602610	635.069061310182	352.333762696200	1013.284151822275	572.804848468848	413.382421202585	1031.860742177774	508.673986116630	413.806610382229	1018.329237985794	437.578016293981	400.547234117559	955.310344468456	308.679731123888	344.290095148860	1040.908473564733	209.042772009596	401.329927513360	870.200281714374	384.788229356802	607.629488034289	784.067956741125	291.955072040379	668.797949576175	804.416946078015	195.531797300709	599.958623664804	645.582656262531	43.282930495752	564.977891402902	816.513448253140	95.377736278957	605.613697265151	725.848492790103	36.746555085612	642.623950482817	934.352580926182	41.590770363646	640.481865278282	952.592736423134	36.231346156646	431.910418282391	1030.754037440499	38.691458111012	355.646541102621	1104.759379393676	109.640348032926	383.515527069400	1237.651904265140	72.130294522016	363.445582396704	717.777701256858	1088.733903338214	290.096646983316	678.210052269338	833.145728919472	334.272642673141	1141.515593530000	1166.781578221558	796.675836439044	1365.315434045950	1251.350410486477	709.516714755505	
127	9.803000000000	718.524339306989	1001.203879199216	584.098518056670	868.129325671235	1411.962306894957	350.015936091714	999.812179358259	1346.816610306726	491.019405256599	956.692015474499	1437.191941347281	670.324041830523	886.803854559878	1482.820833636830	502.723085162688	959.543523727094	928.376701862160	662.339380771495	904.362487108429	951.530868583038	393.242650900831	963.514973673615	717.348137419969	623.782614753972	871.517368026788	614.177792942212	686.869077692297	928.265692265419	557.063197555603	597.307188418516	912.343343342446	467.644234118520	599.979805746752	979.394684912559	760.123023629259	418.667126511671	912.101589977147	633.675580108142	350.584867229451	1012.078468819220	571.314449827872	411.150676043323	1029.264583464302	506.740006111765	411.996817377794	1016.002506187674	435.537579661115	398.922797043668	952.020357273184	306.866256619280	343.356006716824	1036.844527551281	206.932437329049	400.815151339893	866.159157725198	384.146700254578	606.457257441049	779.427361669478	292.090571417101	668.160327290133	799.104521039024	195.312529045273	599.563209931467	639.499961616389	43.403523564099	564.992063620791	810.532818012202	95.348166305412	605.471120058301	719.783597841496	36.749673129318	642.587203616605	928.309221226233	41.505425311099	640.481584457263	946.418521363810	36.199653315579	432.512836620753	1024.104325609957	37.519428799787	355.605424085128	1099.693395266584	106.704214261928	383.446893434741	1231.818536210932	66.627546041358	362.352036517610	719.940761441715	1086.633993151526	286.826771268924	680.502432896733	830.924096460952	330.421964675309	1147.261791156847	1169.561573285743	791.269802523127	1367.708784931315	1260.044951766031	701.656055294603	
